<svg id="Capa_1" enable-background="new 0 0 512.007 512.007" height="512" viewBox="0 0 512.007 512.007" width="512" xmlns="http://www.w3.org/2000/svg"><g><path d="m36.721 265.664c12.361-34.949 50.773-88.537 95.582-133.346s98.397-83.221 133.346-95.582c11.806-4.177 24.764 2.005 28.94 13.817 4.176 11.807-2.01 24.764-13.817 28.94-32.003 11.32-82.781 51.276-116.4 84.895s-73.575 84.397-84.895 116.4c-4.176 11.807-17.133 17.993-28.94 13.817-11.758-4.16-18.01-17.084-13.816-28.941z" fill="#8ee2e1"/><path d="m246.336 475.279c34.949-12.361 88.537-50.773 133.346-95.582s83.221-98.397 95.582-133.346c4.177-11.806-2.005-24.764-13.817-28.94-11.807-4.176-24.764 2.01-28.94 13.817-11.32 32.003-51.276 82.781-84.895 116.4s-84.397 73.575-116.4 84.895c-11.807 4.176-17.993 17.133-13.817 28.94 4.16 11.758 17.084 18.01 28.941 13.816z" fill="#8ee2e1"/><path d="m242.898 427.523c43.234-43.234 54.734-104.482 31.637-148.945-1.351-2.601 1.427-5.379 4.028-4.028 44.463 23.098 105.711 11.597 148.945-31.637l-71.484-86.937-86.937-71.484c-43.234 43.234-54.734 104.482-31.637 148.945 1.351 2.601-1.427 5.379-4.028 4.028-44.463-23.098-105.711-11.597-148.945 31.637l71.484 86.937z" fill="#efedff"/><path d="m278.563 274.55c44.463 23.098 105.711 11.597 148.945-31.637l-30.564-37.171-4.565 2.042c18.368 18.368-25.819 38.709-81.392 7.94-28.629-15.851-61.932-18.081-83.979-15.092 1.693 11.536 5.148 22.614 10.442 32.805 1.351 2.601-1.427 5.379-4.028 4.028-44.463-23.098-105.711-11.597-148.945 31.637l71.484 86.937 86.937 71.484c43.234-43.234 54.734-104.482 31.637-148.945-1.352-2.602 1.426-5.38 4.028-4.028z" fill="#f3a977"/><path d="m392.379 207.784c18.368 18.368-25.819 38.709-81.392 7.94 16.4-12.573 64.446-24.886 81.392-7.94z" fill="#ee8c49"/><path d="m242.269 100.101c14.09-9.333 27.423-16.689 38.503-20.608 11.807-4.176 17.993-17.133 13.817-28.94-4.176-11.812-17.134-17.994-28.94-13.817-15.727 5.563-35.233 16.412-56.01 30.734z" fill="#6ad7d4"/><path d="m461.447 217.411c-11.807-4.176-24.764 2.01-28.94 13.817-3.919 11.08-11.275 24.413-20.608 38.503l32.63 32.63c14.322-20.777 25.172-40.283 30.734-56.01 4.178-11.806-2.005-24.764-13.816-28.94z" fill="#6ad7d4"/><path d="m497.178 232.844-218.023-218.022c-9.752-9.752-25.564-9.752-35.317 0l-4.553 4.553c-9.753 9.753-9.753 25.564 0 35.317l218.023 218.023c9.753 9.753 25.564 9.753 35.317 0l4.553-4.553c9.752-9.753 9.752-25.565 0-35.318z" fill="#a78cd6"/><path d="m353.285 88.951-74.13-74.13c-9.753-9.752-25.564-9.752-35.317 0l-4.553 4.553c-9.753 9.752-9.753 25.564 0 35.317l102.635 102.635c-6.854-19.349-.904-51.538 11.365-68.375z" fill="#807bcf"/><path d="m67.455 209.653c-14.322 20.777-25.172 40.283-30.734 56.01-4.194 11.858 2.058 24.781 13.817 28.94 11.807 4.176 24.764-2.01 28.94-13.817 3.919-11.08 11.275-24.413 20.608-38.503z" fill="#6ad7d4"/><path d="m269.715 411.914c-14.09 9.333-27.422 16.689-38.503 20.608-11.807 4.176-17.993 17.133-13.817 28.94 4.159 11.759 17.083 18.011 28.94 13.817 15.727-5.562 35.233-16.412 56.01-30.734z" fill="#6ad7d4"/><path d="m232.829 497.193-218.022-218.023c-9.752-9.752-9.752-25.564 0-35.317l4.553-4.553c9.752-9.753 25.564-9.753 35.317 0l218.023 218.022c9.753 9.753 9.753 25.564 0 35.317l-4.553 4.553c-9.754 9.753-25.565 9.753-35.318.001z" fill="#a78cd6"/><path d="m128.806 313.431-74.13-74.13c-9.752-9.753-25.564-9.753-35.317 0l-4.553 4.553c-9.752 9.753-9.752 25.564 0 35.317l102.635 102.635c-6.854-19.35-.905-51.538 11.365-68.375z" fill="#807bcf"/><path d="m502.482 227.541-173.128-173.128c-2.929-2.929-7.677-2.93-10.607 0-2.929 2.929-2.929 7.678 0 10.606l173.129 173.128c6.827 6.828 6.829 17.881-.001 24.71l-4.553 4.553c-6.827 6.828-17.88 6.829-24.709 0l-218.024-218.022c-6.813-6.813-6.813-17.897 0-24.71l4.553-4.553c6.828-6.828 17.881-6.83 24.71 0l18.947 18.947c2.93 2.929 7.678 2.929 10.608 0 2.929-2.929 2.929-7.678 0-10.606l-18.948-18.947c-12.692-12.691-33.232-12.692-45.924 0l-4.553 4.553c-6.133 6.133-9.511 14.288-9.511 22.961 0 3.721.626 7.345 1.82 10.757-31.541 18.92-68.171 48.104-99.292 79.225-31.126 31.126-60.314 67.763-79.233 99.305-11.408-3.982-24.61-1.423-33.71 7.678l-4.553 4.553c-12.661 12.661-12.661 33.262 0 45.923l177.782 177.782c2.928 2.929 7.677 2.929 10.606 0s2.929-7.678 0-10.606l-177.781-177.783c-6.828-6.828-6.829-17.881 0-24.71l4.553-4.553c6.812-6.813 17.897-6.813 24.71 0l218.023 218.023c6.827 6.828 6.829 17.881-.001 24.71l-4.553 4.553c-6.827 6.828-17.88 6.829-24.709 0l-14.813-14.813c-2.929-2.929-7.678-2.929-10.606 0-2.929 2.929-2.929 7.678 0 10.607l14.813 14.813c6.133 6.133 14.288 9.511 22.961 9.511 17.106 0 24.973-12.167 27.514-14.064 9.253-9.252 11.626-22.478 7.691-33.718 31.54-18.92 68.17-48.104 99.293-79.226 31.121-31.122 60.304-67.752 79.224-99.292 11.226 3.93 24.452 1.576 33.719-7.691l4.552-4.553c12.69-12.689 12.693-33.23.001-45.923zm-115.407-14.454c2.776 2.776 2.012 3.793 1.505 4.465-4.393 5.833-28.125 12.098-61.438-2.242 7.498-3.179 16.663-5.835 25.496-7.217 15.946-2.493 28.818-.626 34.437 4.994zm-21.048-21.048c-19.122-.096-42.012 6.571-55.535 14.947-30.274-15.326-61.125-15.713-76.897-14.561-2.583-33.016 10.049-68.871 35.641-97.177zm-140.2 33.803c-35.484-13.601-77.747-8.44-114.076 12.794 14.551-20.87 34.564-45.586 57.924-68.946 23.359-23.36 48.075-43.373 68.946-57.924-21.233 36.329-26.395 78.592-12.794 114.076zm-165.425 8.578c18.29-30.607 46.76-66.354 77.205-96.799 30.444-30.445 66.191-58.914 96.799-77.204l22.149 22.149c-32.53 18.09-71.462 50.494-97.485 76.518-26.03 26.029-58.426 64.963-76.511 97.492zm34.832 34.832c39.618-35.819 94.044-46.267 134.731-25.131 9.084 4.717 18.857-5.058 14.141-14.141-3.732-7.185-6.457-14.805-8.255-22.69 20.458-1.339 47.946 1.953 71.504 14.996 17.785 9.847 38.282 16.792 58.488 16.792 27.017-.001 34.447-12.319 34.72-12.502l16.189 16.189c-39.617 35.82-94.043 46.267-134.732 25.131-9.082-4.719-18.859 5.055-14.142 14.141 21.137 40.689 10.69 95.115-25.13 134.732zm190.922 16.92c36.905 14.145 79.283 7.547 114.064-12.776-14.55 20.867-34.559 45.575-57.912 68.928-23.359 23.36-48.075 43.373-68.946 57.924 21.234-36.328 26.395-78.592 12.794-114.076zm88.222 88.222c-30.445 30.445-66.191 58.915-96.798 77.205l-22.156-22.156c32.53-18.086 71.464-50.483 97.493-76.511 26.028-26.029 58.424-64.962 76.51-97.493l22.157 22.157c-18.292 30.606-46.761 66.353-77.206 96.798zm-219.513-116.182-8.485 8.485c-2.929 2.929-2.929 7.677 0 10.607 2.928 2.929 7.677 2.929 10.606 0l8.485-8.485c2.929-2.929 2.929-7.677 0-10.606-2.927-2.93-7.677-2.93-10.606-.001zm88.316 88.316-8.485 8.485c-2.929 2.929-2.929 7.678 0 10.606 2.928 2.929 7.677 2.929 10.607 0l8.485-8.485c2.929-2.929 2.929-7.678 0-10.606-2.93-2.93-7.679-2.929-10.607 0zm-35.959-26.463c-4.141.29-8.201-1.231-11.128-4.159-2.928-2.928-4.444-6.984-4.159-11.129.284-4.132-2.836-7.712-6.969-7.996-4.133-.292-7.712 2.836-7.996 6.969-.582 8.471 2.522 16.767 8.517 22.763 5.994 5.993 14.293 9.1 22.763 8.517 4.133-.284 7.253-3.864 6.969-7.996-.285-4.133-3.872-7.246-7.997-6.969z"/></g></svg>