<svg id="Capa_1" enable-background="new 0 0 512.009 512.009" height="512" viewBox="0 0 512.009 512.009" width="512" xmlns="http://www.w3.org/2000/svg"><g><path d="m182.701 93.778c-20.561-1.444-39.258 6.703-52.077 20.415-2.559 2.738-6.771 3.236-9.851 1.101-5.867-4.068-12.436-7.193-19.491-9.154-3.942-1.096-6.467-5.018-5.558-9.007 6.136-26.94-14.103-54.098-43.058-54.422-23.449-.262-42.925 17.226-44.984 40.587-1.474 16.715 6.276 31.721 18.728 40.52 3.51 2.48 4.454 7.206 2.196 10.863-17.674 28.624-10.348 66.543 17.17 86.457 3.294 2.384 4.707 6.635 3.429 10.496-13.307 40.198 15.671 83.545 59.347 85.029 34.482 1.172 63.653-24.225 66.891-58.575 1.206-12.797-1.335-24.902-6.617-35.389 40.483 5.742 75.859-26.677 73.992-67.275-1.501-32.623-27.541-59.358-60.117-61.646z" fill="#efedff"/><path d="m172.624 271.851-50.548-82.544c-47.264 1.189-60.276-41.107-51.303-67.027 1.252-3.617-.758-7.576-4.39-8.785-27.566-9.174-29.675-50.89-9.566-70.532-1.364-.139-2.744-.237-4.151-.253-23.449-.261-42.925 17.227-44.984 40.588-1.474 16.715 6.276 31.721 18.728 40.52 3.51 2.48 4.454 7.206 2.196 10.863-17.674 28.624-10.348 66.543 17.17 86.457 3.294 2.384 4.707 6.635 3.429 10.496-13.307 40.198 15.671 83.545 59.347 85.029 29.684 1.008 55.415-17.681 64.072-44.812z" fill="#d4d4ff"/><path d="m325.313 469.315h-261.343c-10.028 0-13.878-13.069-5.452-18.506l42.723-27.568c6.609-4.264 8.199-13.247 3.455-19.521l-69.956-92.523c-7.612-10.067 1.269-24.203 13.642-21.715l70.094 14.097c9.055 1.821 16.443-7.256 12.821-15.752l-47.443-111.292c-6.829-16.019 10.354-31.68 25.674-23.4l89.485 48.37c6.949 3.756 15.528-.467 16.788-8.266l8.701-53.844c2.074-12.836 17.765-17.988 27.045-8.88l109.262 107.239z" fill="#f3a977"/><path d="m360.808 237.754-76.357-74.943c-13.895 7.414-27.199 16.447-39.621 27.007-38.712 32.91-64.599 76.931-72.89 123.952-8.724 49.476 2.829 96.217 32.53 131.612 7.605 9.063 16.15 17.055 25.481 23.934h95.362z" fill="#ee8c49"/><ellipse cx="351.821" cy="318.979" fill="#efedff" rx="98.69" ry="82.755" transform="matrix(.738 -.675 .675 .738 -123.068 321.331)"/><path d="m333.66 358.838-54.202 38.933 33.42-55.581c4.73-7.867 3.521-16.997-2.862-21.61l-47.085-34.026 60.208 6.28c8.609.898 17.693-4.854 21.218-13.434l25.301-61.583 3.583 61.583c.499 8.58 7.555 14.331 16.48 13.434l62.423-6.28-59.084 34.026c-8.009 4.613-12.439 13.743-10.483 21.61l13.82 55.581-40.473-38.933c-5.529-5.32-14.857-5.32-22.264 0z" fill="#f3a977"/><path d="m378.33 168.642c-83.029 0-162.205 67.308-176.845 150.337-14.64 83.028 40.8 150.337 123.828 150.337 83.029 0 162.205-67.308 176.845-150.337s-40.8-150.337-123.828-150.337zm48.613 150.337c-7.316 41.488-46.879 75.121-88.367 75.121s-69.191-33.633-61.876-75.121c7.316-41.489 46.879-75.122 88.367-75.122 41.489 0 69.191 33.633 61.876 75.122z" fill="#6171a3"/><path d="m361.749 390.646c-7.518 2.241-15.311 3.454-23.173 3.454-41.488 0-69.191-33.633-61.876-75.121 3.805-21.577 16.342-41.014 33.326-54.716-26.803-16.505-22.34-60.1-5.459-78.005-51.869 25.292-92.946 75.235-103.082 132.721-14.64 83.029 40.8 150.337 123.828 150.337 30.994 0 61.45-9.383 88.214-25.458-48.975 3.084-62.654-39.138-51.778-53.212z" fill="#475a99"/><path d="m378.329 161.142c-23.591 0-47.278 5.15-69.675 14.917l-51.856-50.896c-4.989-4.896-11.748-7.24-18.51-6.642-12.422-18.721-32.622-30.646-55.063-32.224-36.916-2.598-57.398 22.3-58.186 22.83-6.661-4.616-13.979-8.053-21.748-10.212-.163-.045-.228-.147-.251-.137 1.569-6.9 1.704-13.927.402-20.883-.762-4.071-4.676-6.749-8.752-5.992-4.071.763-6.754 4.681-5.992 8.752.924 4.934.827 9.919-.288 14.813-1.786 7.845 2.985 15.706 10.863 17.897 6.151 1.71 11.947 4.433 17.226 8.091 6.088 4.223 14.516 3.301 19.603-2.141 11.87-12.697 28.664-19.283 46.072-18.057 16.902 1.188 32.211 9.811 42.147 23.441-3.779 3.498-6.37 8.201-7.226 13.499l-8.7 53.844c-.436 2.698-3.397 4.174-5.818 2.865l-89.485-48.371c-21.58-11.666-45.74 10.414-36.139 32.939l47.442 111.293c1.257 2.948-1.298 6.088-4.442 5.459l-55.828-11.227c-10.557-14.93-13.499-33.793-7.8-51.01 2.313-6.984-.159-14.591-6.152-18.93-24.178-17.497-30.848-51.073-15.185-76.44 4.32-6.998 2.454-16.19-4.25-20.928-10.94-7.73-16.767-20.342-15.585-33.736 2.553-28.953 34.94-42.573 57.419-27.656 3.45 2.29 8.106 1.35 10.396-2.102 2.29-3.451 1.35-8.106-2.102-10.396-31.678-21.025-77.072-1.806-80.655 38.837-1.655 18.773 6.521 36.457 21.871 47.304.269.19.325.503.144.798-19.77 32.017-11.357 74.393 19.153 96.472.661.479.951 1.326.707 2.064-5.749 17.366-4.56 36.039 2.915 52.436-16.831.469-26.815 20.026-16.243 34.01l69.956 92.522c2.103 2.781 1.425 6.782-1.539 8.695l-42.723 27.568c-6.599 4.258-9.541 12.18-7.321 19.713 2.219 7.533 8.987 12.595 16.84 12.595h261.343c36.297 0 73.874-12.629 105.808-35.56 3.365-2.416 4.134-7.102 1.718-10.467-2.417-3.364-7.102-4.134-10.467-1.717-29.405 21.114-63.875 32.743-97.059 32.743-78.072 0-130.341-62.714-116.442-141.534 14.014-79.48 90.033-144.14 169.458-144.14 78.073 0 130.341 62.714 116.442 141.534-5.736 32.531-21.78 63.261-46.399 88.866-2.871 2.986-2.778 7.733.208 10.604 2.987 2.871 7.734 2.778 10.604-.208 26.69-27.76 44.104-61.184 50.359-96.657 15.467-87.718-43.491-159.138-131.215-159.138zm-166.763 105.464-50.244-41.55c-3.193-2.641-7.92-2.192-10.559 1-2.64 3.191-2.192 7.919 1 10.559l53.242 44.029c-12.662 30.365-17.302 64.776-9.713 97.186l-77.261-34.916c-3.774-1.701-8.217-.028-9.923 3.746s-.029 8.218 3.746 9.924l89.51 40.451c11.024 27.283 31.433 50.586 59.122 64.781h-196.516c-1.58 0-2.206-.997-2.452-1.834-.246-.836-.262-2.014 1.066-2.87l42.723-27.568c10.264-6.624 12.738-20.602 5.371-30.346l-69.956-92.522c-3.457-4.572.585-10.958 6.181-9.839l70.095 14.098c14.946 3.014 27.183-12.005 21.198-26.047l-47.442-111.294c-4.046-9.491 6.136-18.766 15.207-13.861l89.485 48.371c11.476 6.203 25.676-.787 27.758-13.668l8.7-53.844c1.106-6.841 9.445-9.576 14.388-4.725l48.05 47.162c-34.449 18.565-64.329 48.057-82.776 83.577zm153.501-30.249c-45.294 0-87.826 36.363-95.753 81.318-3.968 22.504 1.222 43.688 14.615 59.649 13.135 15.653 32.542 24.274 54.646 24.274 21.844 0 43.811-8.448 61.856-23.788 18.019-15.317 30.057-35.749 33.898-57.53 8.186-46.433-23.399-83.923-69.262-83.923zm50.84 46.306-26.936 2.71c-4.407.443-7.978-1.859-8.242-6.406l-1.515-26.043c17.134 3.89 30.109 14.793 36.693 29.739zm-69.108-28.941-9.379 22.829c-2.26 5.503-8.179 9.395-13.503 8.823l-22.313-2.327c11.645-14.198 27.713-24.832 45.195-29.325zm-60.868 58.706 19.692 14.23c3.168 2.29 3.516 7.196.828 11.667l-14.688 24.428c-9.723-14.882-10.803-33.195-5.832-50.325zm28.581 69.399 23.523-16.897c4.375-3.142 9.831-3.439 12.691-.686l16.983 16.337c-16.787 6.99-36.374 8.511-53.197 1.246zm60.788-37.827 7.134 28.691c-.254.17-.511.335-.767.503l-20.542-19.76c-8.124-7.814-21.514-8.102-31.841-.686l-24.647 17.704 14.669-24.396c6.803-11.315 4.744-24.585-4.897-31.554l-22.724-16.422c.161-.311.316-.625.481-.934 31.94 3.285 30.485 3.283 32.778 3.283 11.088 0 21.889-7.316 26.351-18.176l12.681-30.867.123-.003 1.656 28.455c.75 12.882 11.594 21.79 24.718 20.459l27.603-2.777-28.758 16.562c-10.875 6.263-16.77 18.846-14.018 29.918zm19.997 18.258-5.44-21.877c-1.134-4.562 1.918-10.404 6.948-13.302l23.333-13.438c-2.203 18.649-11.608 35.714-24.841 48.617z"/></g></svg>