<svg id="Capa_1" enable-background="new 0 0 512.034 512.034" height="512" viewBox="0 0 512.034 512.034" width="512" xmlns="http://www.w3.org/2000/svg"><g><path d="m332.027 321.009 12.488-112.395 118.385-52.751c8.898-3.965 18.244 4.587 15.082 13.801l-14.756 43.003c-2.201 6.414 4.305 12.368 10.499 9.608l15.08-6.72c8.898-3.965 18.244 4.587 15.082 13.801l-4.817 14.038c-12.797 37.294-45.919 63.89-85.097 68.329z" fill="#8ee2e1"/><path d="m443.633 188.396c.463-7.816-.107-15.622-1.634-23.22l-97.483 43.438-12.488 112.395 77.168-8.744c19.975-40.837 32.086-84.158 34.437-123.869z" fill="#6ad7d4"/><path d="m180.006 321.009-12.488-112.395-118.385-52.751c-8.898-3.965-18.244 4.587-15.082 13.801l14.756 43.003c2.201 6.414-4.305 12.368-10.499 9.608l-15.08-6.72c-8.898-3.965-18.244 4.587-15.082 13.801l4.817 14.038c12.797 37.294 45.919 63.89 85.097 68.329z" fill="#8ee2e1"/><path d="m180.006 321.009-12.488-112.395-97.484-43.438c-1.527 7.597-2.097 15.402-1.634 23.217 2.458 41.525 15.309 84.688 34.455 123.874z" fill="#6ad7d4"/><path d="m276.307 383.553c48.247-32.947 102.318-120.176 107.12-201.314.446-7.54-2.3-14.917-7.455-20.437-29.215-31.284-77.018-61.058-119.955-61.058-42.936 0-90.739 29.774-119.955 61.058-5.155 5.52-7.901 12.898-7.455 20.437 4.802 81.139 58.873 168.368 107.119 201.314 12.225 8.347 28.356 8.347 40.581 0z" fill="#a78cd6"/><path d="m397.145 140.978c-30.124-32.258-85.162-69.927-141.129-69.927s-111.004 37.669-141.129 69.927c-11.5 12.314-17.529 28.951-16.54 45.643 2.445 41.301 16.75 87.246 40.282 129.37 21.841 39.098 50.309 72.406 78.105 91.388 11.618 7.933 25.202 12.127 39.282 12.127 14.081 0 27.664-4.194 39.282-12.128 27.796-18.98 56.264-52.289 78.104-91.387 23.532-42.124 37.838-88.069 40.282-129.368.99-16.694-5.039-33.331-16.539-45.645zm-18.398 43.575c-4.626 78.159-56.71 162.184-103.185 193.92-11.775 8.041-27.315 8.041-39.09 0-46.475-31.736-98.559-115.762-103.185-193.92-.43-7.263 2.216-14.369 7.181-19.687 28.142-30.135 74.189-58.816 115.549-58.816s87.407 28.681 115.549 58.816c4.965 5.318 7.611 12.424 7.181 19.687z" fill="#d4d4ff"/><path d="m305.474 224.391h-15.352c-4.494 0-7.621-4.466-6.084-8.689l16.971-46.628c2.12-5.825-2.193-11.985-8.392-11.985h-49.137c-6.84 0-12.95 4.278-15.289 10.706l-20.872 57.345c-2.12 5.825 2.193 11.985 8.392 11.985h15.358c4.494 0 7.621 4.466 6.084 8.689l-15.677 43.072c-2.752 7.561 6.115 14.002 12.455 9.048l76.328-59.649c5.823-4.551 2.605-13.894-4.785-13.894z" fill="#f5ea72"/><path d="m256.017 340.908c41.878 0 77.823 7.807 106.772 18.845 9.544 3.639 15.841 12.796 15.841 23.01v37.696c0 13.975-13.671 23.855-26.936 19.458-26.864-8.905-58.995-14.895-95.677-14.895-36.683 0-68.813 5.99-95.677 14.895-13.265 4.397-26.936-5.483-26.936-19.458v-37.696c0-10.214 6.297-19.371 15.841-23.01 28.949-11.039 64.894-18.845 106.772-18.845z" fill="#f5ea72"/><path d="m160.339 439.918c23.418-7.763 50.84-13.307 81.788-14.603-30.77-16.54-36.64-56.229-24.831-82.103-25.664 3.093-48.465 9.072-68.052 16.541-9.544 3.639-15.841 12.796-15.841 23.01v37.696c0 13.976 13.671 23.856 26.936 19.459z" fill="#ebca5f"/><path d="m485.753 208.705c-15.871 7.059 12.23-5.427-15.212 6.763-.08-.009-.235-.151-.252-.229 22.639-66.048 11.662-34.023 14.787-43.141 5.295-15.431-10.355-29.714-25.229-23.086l-40.479 18.037c-2.776-11.546-8.497-22.362-16.741-31.191-31.15-33.355-88.237-72.307-146.61-72.307-25.67 0-52.65 7.341-80.191 21.818-3.667 1.928-5.076 6.462-3.149 10.129 1.928 3.666 6.462 5.075 10.128 3.148 25.366-13.335 49.998-20.096 73.211-20.096 33.477 0 89.089 17.689 135.647 67.545 10.104 10.821 15.402 25.431 14.535 40.083-3.272 55.287-27.809 114.4-60.83 159.776-6.867-2.04-13.853-3.825-20.943-5.37 28.851-37.584 58.24-95.313 61.808-155.59.545-9.21-2.804-18.412-9.187-25.249-28.446-30.459-76.902-61.195-121.029-61.195s-92.584 30.735-121.031 61.197c-6.383 6.836-9.731 16.039-9.186 25.248 3.567 60.277 32.957 118.005 61.808 155.59-7.09 1.544-14.076 3.33-20.943 5.37-33.034-45.395-57.561-104.548-60.83-159.779-.868-14.65 4.43-29.259 14.535-40.08 9.272-9.928 20.443-19.789 32.305-28.518 3.336-2.455 4.05-7.15 1.595-10.486-2.454-3.337-7.15-4.051-10.486-1.596-12.595 9.269-24.483 19.768-34.377 30.361-8.244 8.829-13.965 19.645-16.741 31.191l-40.479-18.037c-14.895-6.633-30.518 7.673-25.229 23.086 1.187 3.462-4.851-14.152 14.788 43.139-.017.079-.173.222-.251.23-.059 0-11.311-5.027-15.213-6.763-14.897-6.642-30.515 7.681-25.23 23.086l4.817 14.038c13.663 39.816 49.519 68.607 91.347 73.347l36.986 4.191c5.454 9.494 11.321 18.695 17.526 27.484-1.725.619-3.447 1.243-5.155 1.894-12.362 4.715-20.668 16.778-20.668 30.019v37.696c0 19.108 18.651 32.589 36.796 26.577 58.461-19.379 128.141-19.389 186.635 0 9.809 3.25 20.567.848 28.081-6.271 3.007-2.849 3.134-7.596.286-10.603-2.849-3.007-7.596-3.135-10.603-.286-3.547 3.36-8.422 4.452-13.043 2.921-61.517-20.392-134.51-20.408-196.074 0-8.414 2.792-17.076-3.462-17.076-12.339v-37.696c0-7.06 4.426-13.491 11.013-16.003 64.063-24.426 143.645-24.615 208.201 0 6.587 2.512 11.013 8.943 11.013 16.003v18.375c0 4.143 3.358 7.5 7.5 7.5s7.5-3.357 7.5-7.5v-18.375c0-13.24-8.306-25.304-20.669-30.019-1.71-.652-3.434-1.277-5.161-1.896 6.207-8.789 12.077-17.988 17.532-27.482l36.985-4.191c41.828-4.739 77.684-33.53 91.347-73.347l4.817-14.038c5.291-15.427-10.36-29.716-25.232-23.083zm-386.849 95.566c-36.105-4.092-67.054-28.942-78.848-63.312l-4.817-14.038c-1.03-3.004 2.002-5.825 4.936-4.516l15.081 6.72c12.185 5.434 24.973-6.282 20.646-18.893l-14.756-43.004c-1.038-3.023 2.016-5.818 4.936-4.516l44.681 19.909c-.069 10.383 2.415 33.054 8.883 57.475l-21.501-9.58c-3.784-1.687-8.218.016-9.903 3.798-1.686 3.783.015 8.218 3.798 9.903l33.264 14.822c5.383 16.223 12.15 32.439 20.187 48.243zm105.329 33.18c-33.914-41.499-60.318-100.25-63.46-153.342-.304-5.128 1.583-10.276 5.176-14.124 26.233-28.091 70.44-56.435 110.067-56.435s83.835 28.344 110.067 56.434c3.593 3.849 5.48 8.997 5.177 14.125-3.141 53.076-29.536 111.83-63.46 153.342-33.73-5.395-69.832-5.395-103.567 0zm292.561-110.529-4.817 14.038c-11.794 34.369-42.744 59.22-78.849 63.312l-26.585 3.012c8.036-15.803 14.803-32.02 20.187-48.243l33.264-14.822c3.783-1.686 5.484-6.12 3.798-9.903-1.685-3.784-6.12-5.485-9.903-3.798l-21.501 9.58c6.482-24.473 8.952-47.17 8.883-57.475l44.681-19.909c2.91-1.294 5.978 1.483 4.936 4.516l-14.755 43.004c-4.333 12.628 8.471 24.314 20.646 18.893l15.081-6.72c1.972-.877 3.417.155 3.947.641.529.484 1.688 1.833.987 3.874zm-306.11 155.079c-4.057.838-6.665 4.806-5.827 8.862.838 4.057 4.808 6.664 8.862 5.827 39.386-8.138 83.612-8.467 124.595 0 4.081.84 8.028-1.79 8.862-5.827.838-4.057-1.771-8.024-5.827-8.862-41.347-8.544-87.639-8.89-130.665 0zm114.791-165.111h-13.887l16.47-45.252c3.897-10.705-4.047-22.05-15.439-22.05h-49.139c-9.956 0-18.932 6.285-22.337 15.64l-20.871 57.346c-3.897 10.705 4.047 22.05 15.439 22.05h13.894l-15.177 41.697c-5.32 14.62 11.862 27.104 24.121 17.522l76.329-59.648c11.455-8.954 5.101-27.305-9.403-27.305zm-76.162 75.134c-.201.156-.301.236-.61.011-.309-.226-.266-.346-.179-.584l15.677-43.073c3.314-9.106-3.443-18.754-13.132-18.754h-15.358c-.996 0-1.685-.98-1.344-1.919l20.872-57.346c1.256-3.451 4.568-5.771 8.242-5.771h49.138c.996 0 1.685.98 1.344 1.919l-16.971 46.629c-3.315 9.106 3.442 18.754 13.131 18.754.161 0 15.361.009 15.506.009.076.06.152.28.135.358-.062.1 2.193-1.708-76.451 59.767z"/></g></svg>