<svg id="Capa_1" enable-background="new 0 0 512.008 512.008" height="512" viewBox="0 0 512.008 512.008" width="512" xmlns="http://www.w3.org/2000/svg"><g><path d="m394.528 48.76-37.654 240.547h-201.733l-37.654-240.547c-3.393-21.675 13.365-41.26 35.303-41.26h206.434c21.939 0 38.696 19.585 35.304 41.26z" fill="#a78cd6"/><path d="m139.722 190.807 15.419 98.5h201.732l15.419-98.498-8.163-2.964-33.789-43.315c-17.993-23.065-45.085-36.294-74.327-36.294-29.251 0-56.347 13.228-74.341 36.294l-33.789 43.313z" fill="#807bcf"/><path d="m289.627 289.307h-67.243l-14.705-281.807h96.653z" fill="#efedff"/><path d="m222.384 289.307h67.244l8.922-170.989c-12.976-6.561-27.469-10.082-42.537-10.082-15.074 0-29.572 3.521-42.55 10.084z" fill="#d4d4ff"/><path d="m245.898 463.478-58.633 16.86c-22.88 6.579-45.847-10.108-46.661-33.901l-2.084-60.974c-.235-6.868-2.4-13.531-6.247-19.225l-34.153-50.554c-13.327-19.727-4.555-46.727 17.823-54.853l57.345-20.824c6.459-2.346 12.127-6.464 16.354-11.882l37.525-48.104c14.643-18.771 43.032-18.771 57.676 0l37.525 48.104c4.227 5.418 9.895 9.536 16.354 11.882l57.345 20.824c22.377 8.126 31.15 35.126 17.823 54.853l-34.153 50.554c-3.847 5.694-6.012 12.357-6.247 19.225l-2.084 60.974c-.813 23.793-23.78 40.48-46.66 33.901l-58.633-16.86c-6.605-1.9-13.61-1.9-20.215 0z" fill="#f5ea72"/><g><g fill="#eda1ab"><ellipse cx="177.629" cy="337.408" rx="28.919" ry="23.03"/><ellipse cx="334.382" cy="337.408" rx="28.92" ry="23.03"/></g></g><path d="m117.915 447.211-2.084-60.973c-.089-2.608-.909-5.129-2.369-7.291l-34.154-50.554c-21.588-31.955-7.418-75.719 28.886-88.902l57.345-20.824c2.453-.89 4.597-2.449 6.202-4.507l37.525-48.104c23.72-30.405 69.72-30.453 93.477 0l37.526 48.104c1.605 2.057 3.75 3.616 6.201 4.506l57.346 20.824c36.247 13.162 50.509 56.897 28.886 88.902l-34.154 50.554c-1.461 2.162-2.28 4.684-2.369 7.292l-2.084 60.973c-1.317 38.54-38.504 65.619-75.624 54.944l-58.633-16.859c-2.507-.72-5.158-.722-7.666 0h-.001l-58.633 16.86c-37.099 10.669-74.305-16.377-75.623-54.945zm127.153-253.225-37.525 48.104c-6.86 8.793-16.026 15.452-26.507 19.257l-57.344 20.824c-8.482 3.08-11.831 13.298-6.76 20.804l34.154 50.554c6.242 9.239 9.743 20.013 10.124 31.158l2.084 60.975c.307 8.999 8.972 15.363 17.696 12.858l58.634-16.86h-.001c10.719-3.082 22.048-3.082 32.764 0l58.633 16.859c8.674 2.494 17.387-3.804 17.697-12.858l2.084-60.973c.381-11.146 3.882-21.92 10.124-31.159l34.153-50.553c5.052-7.478 1.755-17.712-6.76-20.804l-57.345-20.824c-10.48-3.805-19.646-10.464-26.505-19.257l-37.526-48.104c-5.55-7.116-16.302-7.143-21.874-.001z" fill="#f3a977"/><path d="m228.454 444.871-47.463 13.648c-8.724 2.506-17.389-3.858-17.696-12.858l-2.084-60.974c-.381-11.145-3.882-21.919-10.124-31.158l-34.154-50.554c-5.071-7.505-1.722-17.724 6.76-20.804l56.118-20.379c.32-28.575 4.965-55.404 15.171-77.422l-23.239 29.79c-1.605 2.058-3.75 3.616-6.202 4.507l-57.345 20.824c-36.304 13.183-50.474 56.947-28.886 88.902l34.154 50.554c1.461 2.162 2.28 4.684 2.369 7.291l2.084 60.973c1.318 38.568 38.524 65.613 75.624 54.945l58.633-16.86h.001c2.509-.721 5.159-.72 7.666 0l5.713 1.643c-13.033-8.546-25.688-23.289-37.1-42.068z" fill="#ee8c49"/><path d="m194.483 291.082c-11.726 0-21.265 9.54-21.265 21.265 0 4.142 3.358 7.5 7.5 7.5s7.5-3.358 7.5-7.5c0-3.455 2.811-6.265 6.265-6.265s6.265 2.811 6.265 6.265c0 4.142 3.358 7.5 7.5 7.5s7.5-3.358 7.5-7.5c0-11.726-9.539-21.265-21.265-21.265zm211.894-58.64-31.236-11.343 26.796-171.18c4.107-26.233-16.196-49.919-42.713-49.919h-193.484c-4.142 0-7.5 3.358-7.5 7.5s3.358 7.5 7.5 7.5h34.82l7.367 141.187c-4.504 4.692-3.193 3.701-42.099 53.362-.737.945-1.722 1.661-2.849 2.069l-11.741 4.263-26.342-168.281c-1.635-10.444 2.648-20.839 11.178-27.128 3.333-2.458 4.044-7.154 1.585-10.488-2.459-3.333-7.154-4.043-10.488-1.585-13.047 9.621-19.598 25.531-17.095 41.521l26.796 171.179-31.239 11.344c-40.844 14.832-56.902 64.089-32.541 100.15l34.154 50.554c.671.993 1.047 2.151 1.088 3.348l2.084 60.973c1.482 43.375 43.31 73.939 85.192 61.896l58.634-16.86c1.15-.33 2.369-.331 3.52 0l58.633 16.859c30.47 8.763 63.18-5.299 77.778-33.434 1.908-3.677.474-8.204-3.203-10.111-3.675-1.906-8.203-.473-10.111 3.203-11.321 21.819-36.69 32.722-60.318 25.926l-58.635-16.86c-3.864-1.11-7.948-1.11-11.81.001l-58.633 16.86c-32.386 9.314-64.903-14.267-66.056-47.993l-2.084-60.974c-.138-4.018-1.4-7.902-3.65-11.233l-34.153-50.554c-18.86-27.916-6.488-66.135 25.231-77.653l57.344-20.824c3.779-1.371 7.084-3.773 9.558-6.943l37.525-48.104c20.721-26.563 60.893-26.608 81.65 0l37.525 48.104c2.473 3.17 5.777 5.571 9.555 6.943l57.346 20.824c31.668 11.499 44.123 49.691 25.232 77.653l-34.154 50.554c-2.25 3.331-3.512 7.216-3.65 11.234l-1.775 51.949c-.145 4.234 3.245 7.756 7.5 7.756 4.023 0 7.353-3.191 7.491-7.244l1.775-51.948c.041-1.199.417-2.357 1.088-3.35l34.154-50.554c24.326-36.005 8.365-85.295-32.54-100.149zm-116.72-87.631c-20.689-12.096-46.583-12.111-67.303.001l-6.773-129.812h80.85zm59.373 66.807c-1.126-.409-2.111-1.124-2.848-2.069-39.049-49.843-37.589-48.663-42.099-53.361l7.368-141.188h47.773c17.338 0 30.572 15.488 27.894 32.6l-26.343 168.283zm-73.496 111.163c-3.122-2.722-7.861-2.396-10.582.727-2.259 2.593-5.521 4.08-8.947 4.08s-6.688-1.487-8.947-4.08c-2.721-3.122-7.46-3.448-10.582-.727-3.123 2.721-3.448 7.458-.727 10.582 5.109 5.863 12.492 9.225 20.255 9.225 7.764 0 15.147-3.362 20.255-9.225 2.723-3.124 2.398-7.861-.725-10.582zm115.345-47.66-57.346-20.824c-9.154-3.324-17.16-9.14-23.151-16.821l-37.526-48.104c-8.554-10.967-25.129-10.988-33.701 0l-37.525 48.104c-5.991 7.681-13.997 13.497-23.153 16.821l-57.344 20.824c-13.077 4.75-18.217 20.504-10.415 32.052l34.154 50.554c5.452 8.07 8.51 17.481 8.843 27.216l2.084 60.974c.473 13.883 13.846 23.664 27.265 19.81l58.632-16.86c9.363-2.692 19.259-2.692 28.619 0l58.634 16.859c13.372 3.845 26.788-5.879 27.265-19.809l2.083-60.973c.333-9.735 3.391-19.147 8.843-27.217l34.154-50.553c7.788-11.531 2.685-27.296-10.415-32.053zm-2.015 23.655-34.154 50.554c-7.031 10.408-10.975 22.546-11.405 35.102l-2.083 60.973c-.144 4.215-4.183 7.042-8.129 5.906l-58.633-16.859c-12.072-3.472-24.835-3.472-36.908 0l-58.632 16.858c-4.084 1.172-7.992-1.829-8.13-5.905l-2.084-60.975c-.43-12.555-4.373-24.693-11.405-35.101l-34.154-50.554c-2.356-3.487-.763-8.151 3.105-9.555l57.344-20.824c11.808-4.287 22.133-11.789 29.86-21.694l37.525-48.104c2.62-3.358 7.554-3.196 10.047 0l37.526 48.104c7.727 9.905 18.052 17.407 29.859 21.694l57.345 20.824c3.957 1.437 5.411 6.146 3.106 9.556zm-71.336-7.694c-11.726 0-21.265 9.54-21.265 21.265 0 4.142 3.358 7.5 7.5 7.5s7.5-3.358 7.5-7.5c0-3.455 2.81-6.265 6.265-6.265s6.265 2.811 6.265 6.265c0 4.142 3.358 7.5 7.5 7.5s7.5-3.358 7.5-7.5c0-11.726-9.539-21.265-21.265-21.265z"/></g></svg>