<svg id="Capa_1" enable-background="new 0 0 512.003 512.003" height="512" viewBox="0 0 512.003 512.003" width="512" xmlns="http://www.w3.org/2000/svg"><g><path d="m249.375 212.325-40.363 11.606c-15.751 4.529-31.561-6.958-32.121-23.337l-1.435-41.974c-.162-4.728-1.652-9.315-4.3-13.235l-23.511-34.801c-9.175-13.58-3.135-32.167 12.269-37.761l39.476-14.335c4.447-1.615 8.349-4.449 11.258-8.179l25.832-33.115c10.08-12.922 29.624-12.922 39.704 0l25.833 33.115c2.91 3.73 6.811 6.565 11.258 8.179l39.477 14.335c15.405 5.594 21.444 24.18 12.269 37.761l-23.511 34.801c-2.648 3.92-4.139 8.507-4.3 13.235l-1.435 41.974c-.56 16.379-16.37 27.866-32.121 23.337l-40.363-11.606c-4.547-1.307-9.37-1.307-13.916 0z" fill="#f5ea72"/><path d="m175.861 170.468 1.03 30.127c.56 16.379 16.37 27.866 32.121 23.337l40.363-11.606c4.546-1.307 9.369-1.307 13.916 0l40.363 11.606c15.751 4.529 31.561-6.958 32.121-23.337l1.03-30.127z" fill="#ebca5f"/><path d="m21.007 447.972v-185.974c0-31.221 25.31-56.531 56.531-56.531h356.927c31.221 0 56.531 25.31 56.531 56.531v185.974c0 31.221-25.31 56.531-56.531 56.531h-356.927c-31.221 0-56.531-25.31-56.531-56.531z" fill="#d4d4ff"/><path d="m77.538 205.467c-31.221 0-56.531 25.309-56.531 56.531v185.974c0 31.221 25.31 56.531 56.531 56.531h178.632c-88.208-51.725-82.782-239.623-68.055-299.035h-110.577z" fill="#9ea2e3"/><path d="m135.911 354.985h-42.244c-16.974 0-30.734-13.76-30.734-30.734v-46.123c0-16.974 13.76-30.734 30.734-30.734h149.835l-23.378 53.796z" fill="#f5ea72"/><path d="m418.335 354.985h-282.424l107.592-107.592h174.833c16.974 0 30.734 13.76 30.734 30.734v46.123c0 16.975-13.761 30.735-30.735 30.735z" fill="#a78cd6"/><path d="m135.911 462.577h-42.244c-16.974 0-30.734-13.76-30.734-30.734v-46.123c0-16.974 13.76-30.734 30.734-30.734h149.835l-23.378 53.796z" fill="#8ee2e1"/><path d="m418.335 462.577h-282.424l107.592-107.592h174.833c16.974 0 30.734 13.76 30.734 30.734v46.124c0 16.974-13.761 30.734-30.735 30.734z" fill="#6171a3"/><path d="m369.016 401.281h-40.985c-4.142 0-7.5 3.357-7.5 7.5s3.358 7.5 7.5 7.5h40.985c4.142 0 7.5-3.357 7.5-7.5s-3.358-7.5-7.5-7.5zm-109.931-233.147c4.142 0 7.5-3.357 7.5-7.5v-72.902c0-4.143-3.358-7.5-7.5-7.5h-15.582c-4.142 0-7.5 3.357-7.5 7.5s3.358 7.5 7.5 7.5h8.082v65.401c0 4.143 3.358 7.501 7.5 7.501zm175.38 29.834h-91.096l1.336-39.092c.114-3.322 1.158-6.536 3.02-9.292l23.511-34.802c11.9-17.614 4.09-41.74-15.924-49.009l-39.477-14.335c-3.125-1.135-5.858-3.12-7.904-5.742l-25.832-33.115c-13.078-16.762-38.434-16.787-51.531 0l-25.832 33.115c-2.046 2.622-4.779 4.607-7.905 5.742l-13.853 5.03c-3.893 1.414-5.903 5.716-4.49 9.609 1.413 3.894 5.714 5.901 9.61 4.49l13.853-5.03c5.777-2.098 10.83-5.769 14.612-10.615l25.833-33.115c7.075-9.068 20.792-9.082 27.877 0l25.832 33.116c3.782 4.847 8.835 8.518 14.611 10.614l39.477 14.335c10.811 3.926 15.062 16.968 8.614 26.513l-23.511 34.802c-3.441 5.094-5.371 11.033-5.581 17.177l-1.354 39.604h-144.056l-1.354-39.604c-.21-6.145-2.14-12.084-5.581-17.177l-23.511-34.802c-5.155-7.631-3.549-18.068 3.658-23.762 3.25-2.567 3.803-7.284 1.236-10.534-2.568-3.251-7.285-3.805-10.535-1.235-13.332 10.532-16.314 29.828-6.789 43.928l23.512 34.803c1.861 2.755 2.905 5.968 3.019 9.291l1.336 39.092h-91.758c-35.306 0-64.03 28.724-64.03 64.03v185.975c0 35.307 28.724 64.03 64.03 64.03h293.824c4.142 0 7.5-3.357 7.5-7.5s-3.358-7.5-7.5-7.5h-293.824c-27.035 0-49.03-21.995-49.03-49.03v-185.975c0-27.035 21.995-49.03 49.03-49.03h356.927c27.035 0 49.03 21.995 49.03 49.03v185.975c0 27.035-21.995 49.03-49.03 49.03h-26.305c-4.142 0-7.5 3.357-7.5 7.5s3.358 7.5 7.5 7.5h26.305c35.306 0 64.03-28.724 64.03-64.03v-185.975c0-35.307-28.724-64.03-64.03-64.03zm-379.032 187.752v46.123c0 21.082 17.152 38.234 38.234 38.234h324.668c21.082 0 38.234-17.152 38.234-38.234v-46.123c0-12.584-6.117-23.76-15.529-30.729 9.413-6.971 15.529-18.154 15.529-30.74v-46.123c0-21.082-17.152-38.234-38.234-38.234h-324.668c-21.083 0-38.234 17.152-38.234 38.234v46.123c0 12.586 6.116 23.768 15.529 30.74-9.412 6.969-15.529 18.144-15.529 30.729zm386.137 0v46.123c0 12.812-10.423 23.234-23.234 23.234h-264.319l92.592-92.592h171.726c12.812 0 23.235 10.423 23.235 23.235zm-23.235-130.827c12.811 0 23.234 10.423 23.234 23.234v46.123c0 12.812-10.423 23.234-23.234 23.234h-264.317l92.592-92.592h171.725zm-347.902 69.358v-46.123c0-12.811 10.423-23.234 23.234-23.234h131.728l-92.592 92.592h-39.136c-12.811-.001-23.234-10.424-23.234-23.235zm0 61.469c0-12.811 10.423-23.234 23.234-23.234h131.728l-92.592 92.592h-39.136c-12.812 0-23.234-10.423-23.234-23.234zm257.598-77.031h40.985c4.142 0 7.5-3.357 7.5-7.5s-3.358-7.5-7.5-7.5h-40.985c-4.142 0-7.5 3.357-7.5 7.5s3.358 7.5 7.5 7.5z"/></g></svg>